<svg data-v-0dd9719b="" version="1.0" xmlns="http://www.w3.org/2000/svg" xmlns:xlink="http://www.w3.org/1999/xlink" width="100%" height="100%" viewBox="0 0 340.000000 250.000000" preserveAspectRatio="xMidYMid meet" color-interpolation-filters="sRGB" style="margin: auto;"> <rect data-v-0dd9719b="" x="0" y="0" width="100%" height="100%" fill="#fff" fill-opacity="1" class="background"></rect> <rect data-v-0dd9719b="" x="0" y="0" width="100%" height="100%" fill="url(#watermark)" fill-opacity="1" class="watermarklayer"></rect> <g data-v-0dd9719b="" fill="#6314a3" class="icon-text-wrapper icon-svg-group iconsvg" transform="translate(48.30000305175781,95.24606513977051)"><g class="iconsvg-imagesvg" transform="translate(0,0)"><g><rect fill="#6314a3" fill-opacity="0" stroke-width="2" x="0" y="0" width="60" height="59.50786991579636" class="image-rect"></rect> <svg x="0" y="0" width="60" height="59.50786991579636" filtersec="colorsb7823116708" class="image-svg-svg primary" style="overflow: visible;"><svg xmlns="http://www.w3.org/2000/svg" viewBox="0 0 85.30000305175781 84.5999984741211"><linearGradient id="a662ba765-e6fa-471d-b0d4-9a9ef601567b" gradientUnits="userSpaceOnUse" x1="-153.131" y1="-138.853" x2="116.871" y2="133.386"><stop offset="0" stop-color="#19c73e"></stop><stop offset=".183" stop-color="#ffec28"></stop><stop offset=".371" stop-color="#f53"></stop><stop offset=".516" stop-color="#f90b93"></stop><stop offset=".645" stop-color="#6314a3"></stop><stop offset=".726" stop-color="#2f5cc4"></stop><stop offset=".839" stop-color="#00bde0"></stop><stop offset="1" stop-color="#19c73e"></stop></linearGradient><path d="M38.3 68.5c-12.2 0-22.2-10-22.2-22.2s10-22.2 22.2-22.2V8C17.2 8 0 25.2 0 46.3c0 21.1 17.2 38.3 38.3 38.3 21.1 0 38.3-17.2 38.3-38.3H60.5c0 12.2-10 22.2-22.2 22.2z" fill="url(#a662ba765-e6fa-471d-b0d4-9a9ef601567b)"></path><linearGradient id="b786c2c85-214e-4e3d-8626-4cc13614e32a" gradientUnits="userSpaceOnUse" x1="-130.356" y1="-161.435" x2="139.642" y2="110.8"><stop offset="0" stop-color="#19c73e"></stop><stop offset=".183" stop-color="#ffec28"></stop><stop offset=".371" stop-color="#f53"></stop><stop offset=".516" stop-color="#f90b93"></stop><stop offset=".645" stop-color="#6314a3"></stop><stop offset=".726" stop-color="#2f5cc4"></stop><stop offset=".839" stop-color="#00bde0"></stop><stop offset="1" stop-color="#19c73e"></stop></linearGradient><path fill="url(#b786c2c85-214e-4e3d-8626-4cc13614e32a)" d="M44.4 0l40.9 23.6-40.9 23.6z"></path></svg></svg> <!----></g></g> <g transform="translate(67,9.058935165405273)"><g data-gra="path-name" fill-rule="" class="tp-name iconsvg-namesvg"><g transform="scale(1)"><g><path d="M22.06-15.12L22.06-15.12Q19.56-7.56 13.1-2.2 6.64 3.16 3.87 3.16L3.87 3.16Q1.8 3.16 1.8 0.83L1.8 0.83Q1.8-0.44 3.47-1.19L3.47-1.19Q16.61-7.21 18.98-18.33L18.98-18.33 6.24-18.33Q3.82-18.33 3.82-20.26L3.82-20.26Q3.82-22.24 6.24-22.24L6.24-22.24 19.56-22.24Q19.91-25.66 19.91-31.33L19.91-31.33 4.66-31.33Q2.24-31.33 2.24-33.31 2.24-35.29 4.66-35.29L4.66-35.29 40.34-35.29Q42.76-35.29 42.76-33.31 42.76-31.33 40.34-31.33L40.34-31.33 23.95-31.33 23.91-30.15Q23.91-25.4 23.6-22.24L23.6-22.24 38.76-22.24Q41.18-22.24 41.18-20.26L41.18-20.26Q41.18-18.33 38.76-18.33L38.76-18.33 24.13-18.33Q26.28-13.05 31.22-8.39 36.17-3.74 41.88-1.36L41.88-1.36Q43.2-0.75 43.2 0.62L43.2 0.62Q43.2 2.9 40.91 2.9L40.91 2.9Q38.1 2.9 31.71-2.37 25.31-7.65 22.06-15.12ZM84.64-30.5L84.64-27.33 86.48-27.33Q88.24-27.33 88.24-25.75L88.24-25.75Q88.24-24.21 86.48-24.21L86.48-24.21 84.64-24.21 84.64-21.05Q84.86-16.92 80.73-17.14L80.73-17.14 73.17-17.14 73.17-13.4 83.89-13.4Q85.65-13.4 85.65-11.82L85.65-11.82Q85.65-10.28 83.89-10.28L83.89-10.28 73.17-10.28 73.17-6.59 86.26-6.59Q88.11-6.59 88.11-4.97 88.11-3.34 86.26-3.34L86.26-3.34 73.17-3.34 73.17 1.63Q73.17 3.6 71.37 3.6 69.57 3.6 69.57 1.63L69.57 1.63 69.57-3.34 58.36-3.34Q56.51-3.34 56.51-4.97 56.51-6.59 58.36-6.59L58.36-6.59 69.57-6.59 69.57-10.28 60.51-10.28Q58.75-10.28 58.75-11.87L58.75-11.87Q58.75-13.4 60.51-13.4L60.51-13.4 69.57-13.4 69.57-17.14 61.3-17.14Q59.55-17.14 59.55-18.72L59.55-18.72Q59.55-20.26 61.3-20.26L61.3-20.26 69.57-20.26 69.57-24.21 58.49-24.21Q56.69-24.21 56.69-25.75L56.69-25.75Q56.69-27.33 58.49-27.33L58.49-27.33 69.57-27.33 69.57-31.2 61.39-31.2Q59.63-31.2 59.63-32.78 59.63-34.37 61.39-34.37L61.39-34.37 69.57-34.37 69.57-35.82Q69.57-37.79 71.37-37.79 73.17-37.79 73.17-35.82L73.17-35.82 73.17-34.37 80.73-34.37Q84.86-34.54 84.64-30.5L84.64-30.5ZM80.9-24.21L73.17-24.21 73.17-20.26 79.45-20.26Q80.86-20.3 80.9-21.71L80.9-21.71 80.9-24.21ZM73.17-31.2L73.17-27.33 80.9-27.33 80.9-29.75Q80.86-31.16 79.45-31.2L79.45-31.2 73.17-31.2ZM49.75-25.27L49.75-25.27Q50.67-25.27 54.1-23.64L54.1-23.64Q56.12-22.68 56.12-21.31L56.12-21.31Q56.12-19.2 54.14-19.2L54.14-19.2Q53.57-19.2 52.12-19.95L52.12-19.95 50.84-20.57Q47.68-21.88 47.68-23.25L47.68-23.25Q47.68-25.27 49.75-25.27ZM51.94-36.78L51.94-36.78Q52.87-36.78 55.46-35.38 58.05-33.97 58.05-32.65L58.05-32.65Q58.05-30.54 56.03-30.54L56.03-30.54Q55.42-30.54 53.96-31.42L53.96-31.42 52.73-32.08Q49.88-33.57 49.88-34.76L49.88-34.76Q49.88-36.78 51.94-36.78ZM54.58-13.89L54.58-13.89Q56.56-13.89 56.56-12.13L56.56-12.13Q56.56-11.07 54.47-5.36 52.38 0.35 51.7 1.54 51.02 2.72 49.88 2.72L49.88 2.72Q47.72 2.72 47.72 0.79L47.72 0.79Q47.72 0.13 48.16-0.79L48.16-0.79Q50.54-6.11 52.43-11.82L52.43-11.82Q53-13.89 54.58-13.89ZM130.52-21.27L124.28-21.27Q126.34-16.7 131.04-13.14L131.04-13.14Q132.93-11.73 132.93-10.81L132.93-10.81Q132.93-8.96 131.04-8.96L131.04-8.96Q129.99-8.96 127.73-11.69 125.46-14.41 123.93-17.58L123.93-17.58 123.93-6.2Q123.93-4.22 122.26-4.22L122.26-4.22Q120.63-4.22 120.63-6.2L120.63-6.2 120.63-17.09Q117.51-9.54 115.49-9.54L115.49-9.54Q113.86-9.54 113.86-11.21L113.86-11.21Q113.86-11.87 114.7-12.74L114.7-12.74Q118.74-17.01 119.97-21.27L119.97-21.27 114.65-21.27Q112.68-21.27 112.68-22.85 112.68-24.43 114.65-24.43L114.65-24.43 120.63-24.43 120.63-29.31 115.8-29.31Q113.82-29.31 113.82-30.89 113.82-32.48 115.8-32.48L115.8-32.48 120.63-32.48 120.63-35.68Q120.63-37.71 122.3-37.71L122.3-37.71Q123.93-37.71 123.93-35.68L123.93-35.68 123.93-32.48 129.07-32.48Q131.04-32.48 131.04-30.89 131.04-29.31 129.07-29.31L129.07-29.31 123.93-29.31 123.93-24.43 130.52-24.43Q132.5-24.43 132.5-22.85 132.5-21.27 130.52-21.27L130.52-21.27ZM106.83-6.9L106.83-6.9 107.84-11.16Q108.37-14.28 109.56-14.28L109.56-14.28Q110.96-14.28 110.96-12.92L110.96-12.92Q110.96-12.17 109.34-7.16L109.34-7.16 112.37-7.65Q111.67-9.18 111.67-9.58L111.67-9.58Q111.67-10.63 112.9-10.63L112.9-10.63Q113.77-10.63 115-8.13 116.24-5.63 116.24-4.88L116.24-4.88Q116.24-3.56 114.83-3.56L114.83-3.56Q113.82-3.56 113.42-4.88L113.42-4.88 113.2-5.54 113.07-5.49Q107.8-4.09 106.66-4.09L106.66-4.09Q105.29-4.09 105.29-5.58L105.29-5.58Q105.29-6.72 106.83-6.9ZM108.06-14.99L105.16-14.99 105.16-2.72Q105.16-1.1 108.33-0.97L108.33-0.97 116.59-0.88 125.6-1.01Q128.28-1.05 128.76-2.07L128.76-2.07Q129.16-2.72 129.16-4L129.16-4Q129.2-6.15 131.22-6.15L131.22-6.15Q133.15-6.15 133.15-3.96L133.15-3.96Q133.15 0.18 131.29 1.25 129.42 2.33 116.94 2.33L116.94 2.33 107.84 2.24Q102 2.07 102-1.32L102-1.32 102-14.99 99.71-14.99 99.71-14.33Q99.54-9.27 98.92-6.04 98.31-2.81 96.77 0.02 95.23 2.86 93.56 2.86L93.56 2.86Q91.8 2.86 91.8 1.1L91.8 1.1Q91.8 0.4 92.94-0.79L92.94-0.79Q96.55-4.57 96.55-14.99L96.55-14.99 96.06-14.99Q92.94-15.21 93.25-18.76L93.25-18.76 93.25-29.58Q92.94-33.66 97.08-33.35L97.08-33.35 99.27-33.35 99.89-35.82Q100.37-37.79 101.91-37.79L101.91-37.79Q103.8-37.79 103.8-36.3L103.8-36.3Q103.8-35.55 102.66-33.35L102.66-33.35 108.06-33.35Q112.19-33.62 111.88-29.58L111.88-29.58 111.88-18.76Q112.15-14.68 108.06-14.99L108.06-14.99ZM103.93-30.41L103.93-25.75 108.81-25.75 108.81-29.05Q108.85-30.45 107.4-30.41L107.4-30.41 103.93-30.41ZM108.81-22.9L103.93-22.9 103.93-17.89 107.4-17.89Q108.85-17.89 108.81-19.29L108.81-19.29 108.81-22.9ZM97.69-17.89L100.99-17.89 100.99-22.9 96.33-22.9 96.33-19.29Q96.28-17.89 97.69-17.89L97.69-17.89ZM96.33-25.75L100.99-25.75 100.99-30.41 97.69-30.41Q96.28-30.45 96.33-29.05L96.33-29.05 96.33-25.75ZM156.14-6.99L151.57-6.99 151.57-0.57Q151.79 3.52 147.83 3.6L147.83 3.6 145.59 3.6Q143.57 3.6 143.57 1.85 143.57 0.09 145.06 0.09L145.06 0.09 146.73 0.09Q148.1 0.04 148.1-1.45L148.1-1.45 148.1-6.99 142.43-6.99Q138.87-6.86 138.87-10.28L138.87-10.28 138.87-12.83Q138.87-16.26 142.43-16.13L142.43-16.13 156.14-16.13Q159.7-16.26 159.7-12.83L159.7-12.83 159.7-10.28Q159.7-6.86 156.14-6.99L156.14-6.99ZM143.48-9.62L143.48-9.62 155.13-9.62Q156.4-9.67 156.45-10.94L156.45-10.94 156.45-12.17Q156.4-13.45 155.13-13.49L155.13-13.49 143.48-13.49Q142.21-13.45 142.16-12.17L142.16-12.17 142.16-10.94Q142.21-9.67 143.48-9.62ZM155.83-23.29L151.26-23.29 151.26-20.92 160.49-20.92Q162.16-20.92 162.16-19.51L162.16-19.51Q162.16-18.06 160.49-18.06L160.49-18.06 138.43-18.06Q136.8-18.06 136.8-19.51L136.8-19.51Q136.8-20.92 138.43-20.92L138.43-20.92 147.83-20.92 147.83-23.29 143.13-23.29Q139.26-23.12 139.44-26.98L139.44-26.98 139.44-32.74Q139.26-36.56 143.13-36.39L143.13-36.39 155.83-36.39Q159.7-36.56 159.52-32.74L159.52-32.74 159.52-26.98Q159.7-23.12 155.83-23.29L155.83-23.29ZM142.69-31.16L156.27-31.16 156.27-32.61Q156.23-33.79 155.04-33.84L155.04-33.84 143.92-33.84Q142.73-33.84 142.69-32.61L142.69-32.61 142.69-31.16ZM156.27-28.74L142.69-28.74 142.69-27.11Q142.69-25.88 143.92-25.84L143.92-25.84 155.04-25.84Q156.27-25.88 156.27-27.11L156.27-27.11 156.27-28.74ZM143.7-5.93L143.7-5.93Q145.28-5.93 145.28-4.48L145.28-4.48Q145.28-3.52 142.47-0.92 139.66 1.67 138.25 1.67L138.25 1.67Q136.8 1.67 136.8-0.04L136.8-0.04Q136.8-0.92 138.34-1.82 139.88-2.72 141.81-4.75L141.81-4.75Q143-5.93 143.7-5.93ZM155.74-5.93L155.74-5.93Q156.58-5.93 158.38-4.61 160.18-3.3 160.18-2.37L160.18-2.37Q160.18-0.57 158.33-0.57L158.33-0.57Q157.63-0.57 156.58-1.63L156.58-1.63 155.39-2.68Q154.03-3.87 154.03-4.35L154.03-4.35Q154.03-5.93 155.74-5.93ZM173.28-36.96L173.28-36.96Q175.3-36.96 175.3-35.16L175.3-35.16Q175.3-33.84 169.74-29.79 164.18-25.75 162.29-25.75L162.29-25.75Q160.49-25.75 160.49-27.73L160.49-27.73Q160.49-28.96 162.03-29.62L162.03-29.62Q166.25-31.46 171.39-35.95L171.39-35.95Q172.53-36.96 173.28-36.96ZM176.13-11.07L176.13-11.07Q178.2-11.07 178.2-9.1L178.2-9.1Q178.2-7.65 173.96-4.35 169.72-1.05 165.56 1.12 161.41 3.3 160.14 3.3L160.14 3.3Q158.38 3.3 158.38 1.32L158.38 1.32Q158.38-0.04 160.4-0.79L160.4-0.79Q168.62-4.04 174.33-10.06L174.33-10.06Q175.39-11.07 176.13-11.07ZM174.16-24.17L174.16-24.17Q176.04-24.17 176.04-22.46L176.04-22.46Q176.04-21.01 170.62-16.77 165.19-12.52 163.3-12.52L163.3-12.52Q161.59-12.52 161.59-14.46L161.59-14.46Q161.59-15.56 163.76-16.68 165.94-17.8 167.94-19.25 169.94-20.7 171.63-22.43 173.32-24.17 174.16-24.17Z" transform="translate(-1.7999999523162842, 37.790000915527344)"></path></g> <!----> <!----> <!----> <!----> <!----> <!----> <!----></g></g> <!----></g></g><defs v-gra="od"></defs></svg>